<?xml version="1.0" standalone="no"?>
<svg viewBox="0 0 200 200" xmlns="http://www.w3.org/2000/svg">
  <path fill="#8A3FFC" d="M50,-73.9C64.7,-68.3,76.4,-54.3,83.3,-38.3C90.3,-22.3,92.4,-4.3,86.2,9.7C80.1,23.8,65.5,34,53.5,44.6C41.6,55.3,32.2,66.4,19.7,72.4C7.3,78.4,-8.1,79.2,-20,73.3C-31.9,67.4,-40.2,54.8,-51.3,43.6C-62.4,32.4,-76.1,22.7,-81.7,9.4C-87.2,-3.8,-84.4,-20.6,-75.9,-32.7C-67.3,-44.9,-52.9,-52.4,-39.3,-58.5C-25.7,-64.5,-12.8,-69.1,2.4,-72.8C17.7,-76.6,35.3,-79.5,50,-73.9Z" transform="translate(100 100)" />
</svg>
